<?xml version="1.0" encoding="UTF-8"?>
<svg id="Layer_1" data-name="Layer 1" xmlns="http://www.w3.org/2000/svg" xmlns:xlink="http://www.w3.org/1999/xlink" viewBox="0 0 1024 1024">
  <defs>
    <style>
      .cls-1 {
        fill: #11192d;
      }

      .cls-2 {
        fill: url(#linear-gradient-3);
      }

      .cls-3 {
        fill: url(#linear-gradient-2);
      }

      .cls-4 {
        fill: url(#linear-gradient);
      }
    </style>
    <linearGradient id="linear-gradient" x1="222.64" y1="574.43" x2="297.1" y2="481.15" gradientUnits="userSpaceOnUse">
      <stop offset="0" stop-color="#005e98"/>
      <stop offset="1" stop-color="#5bd8b5"/>
    </linearGradient>
    <linearGradient id="linear-gradient-2" x1="237.37" y1="586.18" x2="311.82" y2="492.9" xlink:href="#linear-gradient"/>
    <linearGradient id="linear-gradient-3" x1="209.31" y1="563.78" x2="283.77" y2="470.51" xlink:href="#linear-gradient"/>
  </defs>
  <g>
    <path class="cls-1" d="M408.27,462.94c-8.82,0-15.71,2.19-21.09,6.72-6.01,5.34-9.31,13.42-9.31,22.77v1.43h-8.87v11.36h8.87v54.41h13.97v-54.41h14.74v-11.36h-14.74v-1.82c0-8.03,2.53-17.61,14.61-17.61,3.46,0,6.18.41,8.08,1.21v83.99h13.97v-91.98l-.67-.37c-4.96-2.76-12.09-4.34-19.55-4.34Z"/>
    <path class="cls-1" d="M471.29,492.42c-18.21,0-30.93,14.54-30.93,35.36s12.7,33.15,32.36,33.15c10.43,0,17.47-2.19,21.55-4.03l.99-.45-2.57-10.78-1.43.61c-3.87,1.64-8.6,3.16-16.97,3.16-5.87,0-19.36-1.91-20.3-19.3h44.18l.19-1.7c.14-1.21.34-2.87.34-4.96,0-3.48-.54-12.38-5.53-19.95-4.79-7.27-12.35-11.11-21.87-11.11ZM454.28,519.3c1.18-6.56,5.61-16.04,16.1-16.04,4.18,0,7.55,1.27,10.01,3.78,3.72,3.79,4.46,9.38,4.58,12.26h-30.69Z"/>
    <path class="cls-1" d="M536.66,492.42c-18.21,0-30.93,14.54-30.93,35.36s12.7,33.15,32.36,33.15c10.43,0,17.47-2.19,21.55-4.03l.99-.45-2.57-10.78-1.43.61c-3.87,1.64-8.6,3.16-16.97,3.16-5.87,0-19.36-1.91-20.3-19.3h44.18l.19-1.7c.14-1.21.34-2.87.34-4.96,0-3.48-.54-12.38-5.53-19.95-4.79-7.27-12.35-11.11-21.87-11.11ZM519.65,519.3c1.18-6.56,5.61-16.04,16.1-16.04,4.18,0,7.55,1.27,10.01,3.78,3.72,3.79,4.46,9.38,4.58,12.26h-30.69Z"/>
    <path class="cls-1" d="M592.12,475.33l-13.84,3.7v14.83h-9.79v11.36h9.79v33.13c0,8.43,1.53,13.94,4.76,17.3,3.02,3.45,7.65,5.28,13.38,5.28,4.28,0,8.07-.59,10.68-1.66l.87-.36-.68-11.15-1.55.42c-1.23.34-3.33.74-6.31.74-5.19,0-7.3-3.17-7.3-10.95v-32.74h16.44v-11.36h-16.44v-18.53Z"/>
    <path class="cls-1" d="M648.74,504.31c6.37,0,10.4,1.54,12.66,2.83l1.44.82,3.39-11.51-.98-.49c-3.14-1.57-9.34-3.4-16.5-3.4-20.75,0-35.23,14.33-35.23,34.84s13.16,33.54,32.75,33.54c8.45,0,15.38-2.05,18.74-3.8l.9-.47-2.53-11.14-1.45.64c-3.32,1.46-7.38,3.02-13.56,3.02-12.33,0-20.61-8.96-20.61-22.31s8.24-22.57,21-22.57Z"/>
    <path class="cls-1" d="M703.8,492.42c-9.08,0-17.3,3.28-23.15,9.23-6.2,6.31-9.48,15.16-9.48,25.61,0,19.9,12.99,33.8,31.58,33.8,16.3,0,32.75-10.77,32.75-34.84,0-20.22-12.74-33.8-31.71-33.8ZM721.15,526.61c0,13.45-7.52,23.22-17.87,23.22s-17.87-9.66-17.87-22.96c0-11.56,5.61-23.22,18.13-23.22s17.61,11.9,17.61,22.96Z"/>
    <path class="cls-1" d="M776.61,492.42c-6.94,0-13.19,4-16.84,10.48l-.29-9.05h-12.72l.09,1.4c.36,5.38.52,11.43.52,19.61v44.76h13.97v-34.97c0-1.86.26-3.64.5-5.12,1.53-8.43,6.94-13.67,14.11-13.67,1.41,0,2.49.11,3.63.36l1.59.35v-13.49l-.99-.25c-1.22-.31-2.26-.43-3.58-.43Z"/>
    <path class="cls-1" d="M815.1,492.42c-18.21,0-30.93,14.54-30.93,35.36s12.7,33.15,32.36,33.15c10.43,0,17.47-2.19,21.55-4.03l.99-.45-2.57-10.78-1.43.61c-3.87,1.64-8.6,3.16-16.97,3.16-5.87,0-19.36-1.91-20.3-19.3h44.18l.19-1.69c.14-1.21.34-2.87.34-4.96,0-3.48-.54-12.38-5.53-19.95-4.79-7.27-12.35-11.11-21.87-11.11ZM798.09,519.3c1.18-6.56,5.61-16.04,16.1-16.04,4.18,0,7.55,1.27,10.01,3.78,3.72,3.79,4.46,9.38,4.58,12.26h-30.69Z"/>
  </g>
  <g>
    <path class="cls-4" d="M185.18,535.72s17.18,7.77,36.41-.41,39.27-25.37,62.59-23.73c23.32,1.64,41.32,19.64,41.32,19.64,0,0-17.59-10.64-38.46-5.32-20.86,5.32-31.71,25.09-55.64,30.27-33.96,7.36-46.23-20.46-46.23-20.46Z"/>
    <path class="cls-3" d="M200.32,564.76s15.96,9.41,41.32-.82c25.37-10.23,29.05-23.32,51.96-27.41,22.91-4.09,32.32,6.55,32.32,6.55,0,0-15.96-.41-27.41,8.18-11.46,8.59-20.81,26.43-39.27,31.91-37.23,11.05-58.91-18.41-58.91-18.41Z"/>
    <path class="cls-2" d="M333.69,504.38v15.48c-5.04-.32-9.92-1.26-14.55-2.74-6.16-1.95-11.89-4.84-17.04-8.51-3.3-2.35-5.84-5.61-7.38-9.35l-.02-.05.19-.22-.29-.02c-2.92-6.98-7.75-12.95-13.85-17.26-2.38-1.69-4.96-3.13-7.68-4.26l-.02-.29-.22.19c-2.8-1.15-5.76-1.99-8.83-2.49-2.08-.33-4.22-.51-6.39-.51-5.39,0-10.53,1.06-15.22,3l-.22-.19-.02.29c-9.7,4.05-17.47,11.82-21.53,21.53l-.29.02.2.22c-1.93,4.69-3,9.84-3,15.23,0,3.49.45,6.88,1.29,10.1-4.98,1.31-10.22,2-15.61,2-2.04,0-4.07-.1-6.06-.29-5.2-.51-10.21-1.66-14.96-3.39-.4-.15-.67-.53-.67-.96v-17.52c0-1.48,1.14-2.7,2.62-2.81l13.43-.96c1.55-6.78,4.22-13.13,7.82-18.85l-8.82-10.18c-.97-1.12-.91-2.79.14-3.83l14.23-14.23c1.05-1.04,2.72-1.1,3.83-.14l10.18,8.83c5.72-3.59,12.07-6.26,18.85-7.82l.96-13.43c.1-1.47,1.33-2.62,2.81-2.62h20.12c1.48,0,2.7,1.14,2.81,2.62l.96,13.43c1.63.37,3.23.82,4.81,1.31,4.98,1.58,9.69,3.78,14.03,6.5l10.18-8.83c1.12-.97,2.79-.91,3.83.14l14.23,14.23c1.04,1.04,1.1,2.72.14,3.83l-8.83,10.18c3.59,5.72,6.26,12.07,7.82,18.85l13.43.96c1.47.11,2.62,1.33,2.62,2.81Z"/>
  </g>
</svg>